<svg xmlns="http://www.w3.org/2000/svg" xmlns:xlink="http://www.w3.org/1999/xlink" version="1.1" id="Layer_1" x="0px" y="0px" viewBox="0 0 205.7 66.4" xml:space="preserve" class="style0">
<style>
	.style0{
		enable-background:	new 0 0 205.7 66.4;
	}
</style>
<style type="text/css">
	.st0{fill:#2D2926;}
	.st1{fill:#FFFFFF;}
	.st2{fill:#D9D9D6;}
	.st3{opacity:0.87;}
</style>
<g>
	<g class="horn-l">
		<path class="st0" d="M25.2 24.1l12.6-2.9L20.3 2.6c-2.7-0.8-5.3-1.4-7.9-2C9.5 0 6.3-0.6 3.7 1.3C2.6 2 1.9 3.2 1.6 4.4 c-1.5 2.3-2 5-1.4 7.6c0.7 3.2 3 5.9 6.1 7.1l10.8 2.1l-3-6L8 13.5l1.4-5.9l6.9 1.1L25.2 24.1z"/>
	</g>
	<g class="horn-r">
		<path class="st0" d="M55.6 24.1l-12.6-2.9L60.5 2.6c2.7-0.8 5.3-1.4 7.9-2c2.9-0.6 6.1-1.1 8.6 0.7c1.1 0.8 1.8 1.9 2.1 3.2 c1.5 2.3 2 5 1.4 7.6c-0.7 3.2-3 5.9-6.1 7.1l-10.8 2.1l3-6l6.1-1.7l-1.4-5.9l-6.9 1.1L55.6 24.1z"/>
	</g>
</g>
<g>
	<g class="face-l">
		<polygon class="st1" points="38.7,22.9 25.2,26.6 25.7,55.2 39.8,66.4 39.3,44.7"/>
	</g>
	<g class="face-r">
		<polygon class="st2" points="42.4,22.9 55.6,26.6 55.6,55.2 41.3,66.4"/>
	</g>
</g>
<g>
	<g>
		<g class="ear-r">
			<polygon class="st2" points="57,26.6 58.2,34 67.7,34 71.4,26"/>
		</g>
	</g>
	<g>
		<g class="ear-l">
			<polygon class="st1" points="23.8,26.6 22.6,34 13.1,34 9.4,26"/>
		</g>
	</g>
</g>
<g class="st3">
	<g class="logo-m">
		<path id="m" d="M73.7 38.3c0-5.2-0.6-9.3-1.4-12.6h3.5l1 5.1c2.2-3.1 5.3-5.1 9.1-5.1c3.2 0 4.9 1.9 6 4.7c2-2.5 4.6-4.7 8-4.7 c5 0 7.7 3.3 7.7 8.2v31.6h-3.5V34c0-4-1.9-5.5-4.6-5.5c-3.1 0-5.7 2.4-7.1 5v31.9H89V35.5c0-2.9-0.2-6.9-4.1-6.9 c-3.3 0-6.3 2.7-7.7 5.7v31.2h-3.5V38.3z"/>
	</g>
	<g class="logo-tilda">
		<path id="t" d="M110.5 26h19.1v5.6h-6.5v33.8h-6.2V31.7h-6.5V26z"/>
		<path id="i" d="M132.3 26h6.2v39.4h-6.2V26z"/>
		<path id="l" d="M143 26h6.2v33.8h10.2v5.6H143V26z"/>
		<path id="d" d="M162.1 26h9.8c6.2 0 9.2 3.4 9.2 9.7v19.9c0 6.3-3 9.7-9.2 9.7h-9.8V26z M168.3 31.7v28.1h3.5c2 0 3.2-1 3.2-3.8V35.5 c0-2.8-1.2-3.8-3.2-3.8H168.3z"/>
		<path id="a" d="M205.1 65.4h-6.2l-1.1-7.1h-7.6l-1.1 7.1h-5.7l6.3-39.4h9.1L205.1 65.4z M191 52.9h6l-3-19.9L191 52.9z"/>
	</g>
</g>
<g>
</g>
<g>
</g>
<g>
</g>
<g>
</g>
<g>
</g>
<g>
</g>
<g>
</g>
<g>
</g>
<g>
</g>
<g>
</g>
<g>
</g>
<g>
</g>
<g>
</g>
<g>
</g>
<g>
</g>
</svg>
