<svg xmlns="http://www.w3.org/2000/svg" xmlns:xlink="http://www.w3.org/1999/xlink" version="1.1" id="Layer_1" x="0px" y="0px" viewBox="0 0 207.5 66.4" xml:space="preserve" class="style0">
<style>
	.style0{
		enable-background:	new 0 0 207.5 66.4;
	}
</style><style type="text/css">
	.st0{fill:#2D2926;}
	.st1{fill:#008755;}
	.st2{fill:#006845;}
	.st3{opacity:0.87;}
</style>
<g>
	<g>
		<path class="st0" d="M25.2 24.1l12.6-2.9L20.3 2.6c-2.7-0.8-5.3-1.4-7.9-2C9.5 0 6.3-0.6 3.7 1.3C2.7 2 1.9 3.2 1.6 4.4 c-1.5 2.3-2 5-1.4 7.6c0.7 3.2 3 5.9 6.1 7.1l10.8 2.1l-3-6L8 13.5l1.4-5.9l6.9 1.1L25.2 24.1z"/>
	</g>
	<g>
		<path class="st0" d="M55.6 24.1L43 21.2L60.5 2.6c2.7-0.8 5.3-1.4 7.9-2c2.9-0.6 6.1-1.1 8.6 0.7C78.2 2 79 3.2 79.3 4.4 c1.5 2.3 2 5 1.4 7.6c-0.7 3.2-3 5.9-6.1 7.1l-10.8 2.1l3-6l6.1-1.7l-1.4-5.9l-6.9 1.1L55.6 24.1z"/>
	</g>
</g>
<g>
	<g>
		<polygon class="st1" points="38.7,22.9 25.3,26.6 25.7,55.2 39.9,66.4 39.3,44.7"/>
	</g>
	<g>
		<polygon class="st2" points="42.5,22.9 55.6,26.6 55.6,55.2 41.3,66.4"/>
	</g>
</g>
<g>
	<g>
		<g>
			<polygon class="st2" points="57,26.6 58.2,34 67.7,34 71.4,26"/>
		</g>
	</g>
	<g>
		<g>
			<polygon class="st1" points="23.9,26.6 22.6,34 13.1,34 9.4,26"/>
		</g>
	</g>
</g>
<g class="st3">
	<g>
		<path d="M74 38.6c0-5.2-0.6-9.4-1.4-12.7h3.6l1 5.1c2.2-3.1 5.4-5.1 9.2-5.1c3.2 0 5 1.9 6.1 4.8c2-2.5 4.7-4.8 8.1-4.8 c5.1 0 7.7 3.4 7.7 8.3v32h-3.5V34.3c0-4-1.9-5.5-4.7-5.5c-3.1 0-5.7 2.5-7.2 5.1v32.2h-3.5V35.9c0-3-0.2-7-4.2-7 c-3.4 0-6.4 2.8-7.7 5.7v31.5H74V38.6z"/>
	</g>
	<g>
		<path d="M111.2 26.3h19.3V32H124v34.1h-6.3V32h-6.5V26.3z"/>
		<path d="M133.3 26.3h6.3v39.8h-6.3V26.3z"/>
		<path d="M144.1 26.3h6.3v34.1h10.3v5.7h-16.6V26.3z"/>
		<path d="M163.4 26.3h9.9c6.3 0 9.3 3.5 9.3 9.8v20.1c0 6.4-3.1 9.8-9.3 9.8h-9.9V26.3z M169.6 32v28.4h3.5c2 0 3.2-1 3.2-3.9V35.8 c0-2.8-1.2-3.9-3.2-3.9H169.6z"/>
		<path d="M206.8 66.1h-6.3l-1.1-7.2h-7.7l-1.1 7.2h-5.7l6.4-39.8h9.2L206.8 66.1z M192.6 53.5h6l-3-20.1L192.6 53.5z"/>
	</g>
</g>
<g>
</g>
<g>
</g>
<g>
</g>
<g>
</g>
<g>
</g>
<g>
</g>
<g>
</g>
<g>
</g>
<g>
</g>
<g>
</g>
<g>
</g>
<g>
</g>
<g>
</g>
<g>
</g>
<g>
</g>
</svg>
