<?xml version="1.0" encoding="utf-8"?>
<!-- Generator: Adobe Illustrator 19.1.0, SVG Export Plug-In . SVG Version: 6.00 Build 0)  -->
<svg version="1.1" id="Layer_1" xmlns="http://www.w3.org/2000/svg" xmlns:xlink="http://www.w3.org/1999/xlink" x="0px" y="0px"
	 viewBox="-295 367.6 81 66.4" style="enable-background:new -295 367.6 81 66.4;" xml:space="preserve">
<style type="text/css">
	.st0{fill:#2D2926;}
	.st1{fill:#008755;}
	.st2{fill:#006845;}
</style>
<g>
	<g>
		<path class="st0" d="M-269.8,391.7l12.6-2.9l-17.5-18.6c-2.7-0.8-5.3-1.4-7.9-2c-2.9-0.6-6.1-1.2-8.7,0.7c-1,0.7-1.8,1.9-2.1,3.1
			c-1.5,2.3-2,5-1.4,7.6c0.7,3.2,3,5.9,6.1,7.1l10.8,2.1l-3-6l-6.1-1.7l1.4-5.9l6.9,1.1L-269.8,391.7z"/>
	</g>
	<g>
		<path class="st0" d="M-239.4,391.7l-12.6-2.9l17.5-18.6c2.7-0.8,5.3-1.4,7.9-2c2.9-0.6,6.1-1.1,8.6,0.7c1.2,0.7,2,1.9,2.3,3.1
			c1.5,2.3,2,5,1.4,7.6c-0.7,3.2-3,5.9-6.1,7.1l-10.8,2.1l3-6l6.1-1.7l-1.4-5.9l-6.9,1.1L-239.4,391.7z"/>
	</g>
</g>
<g>
	<g>
		<polygon class="st1" points="-256.3,390.5 -269.7,394.2 -269.3,422.8 -255.1,434 -255.7,412.3 		"/>
	</g>
	<g>
		<polygon class="st2" points="-252.5,390.5 -239.4,394.2 -239.4,422.8 -253.7,434 		"/>
	</g>
</g>
<g>
	<g>
		<g>
			<polygon class="st2" points="-238,394.2 -236.8,401.6 -227.3,401.6 -223.6,393.6 			"/>
		</g>
	</g>
	<g>
		<g>
			<polygon class="st1" points="-271.1,394.2 -272.4,401.6 -281.9,401.6 -285.6,393.6 			"/>
		</g>
	</g>
</g>
</svg>
