<?xml version="1.0" encoding="utf-8"?>
<!-- Generator: Adobe Illustrator 19.1.0, SVG Export Plug-In . SVG Version: 6.00 Build 0)  -->
<svg version="1.1" id="Layer_1" xmlns="http://www.w3.org/2000/svg" xmlns:xlink="http://www.w3.org/1999/xlink" x="0px" y="0px"
	 viewBox="-371 381 39.9 40" style="enable-background:new -371 381 39.9 40;" xml:space="preserve">
<style type="text/css">
	.st0{fill:none;}
	.st1{fill:#FFFFFF;}
</style>
<path class="st0" d="M-375,377h48v48h-48V377z"/>
<path class="st1" d="M-332.2,400.2l-18-18c-0.7-0.7-1.7-1.2-2.8-1.2h-14c-2.2,0-4,1.8-4,4v14c0,1.1,0.4,2.1,1.2,2.8l18,18
	c0.7,0.7,1.7,1.2,2.8,1.2s2.1-0.4,2.8-1.2l14-14c0.7-0.7,1.2-1.7,1.2-2.8S-331.5,400.9-332.2,400.2z M-364,391c-1.7,0-3-1.3-3-3
	s1.3-3,3-3s3,1.3,3,3S-362.3,391-364,391z M-340.5,407.5l-8.5,8.5l-8.5-8.5c-0.9-0.9-1.5-2.2-1.5-3.5c0-2.8,2.2-5,5-5
	c1.4,0,2.6,0.6,3.5,1.5l1.5,1.4l1.5-1.5c0.9-0.9,2.2-1.5,3.5-1.5c2.8,0,5,2.2,5,5C-339,405.4-339.6,406.6-340.5,407.5z"/>
</svg>
